
<svg xmlns="http://www.w3.org/2000/svg" width="24" height="24" viewBox="0 0 24 24" fill="none" stroke="currentColor" stroke-width="2" stroke-linecap="round" stroke-linejoin="round"><path d="M10.09 4.01a4.83 4.83 0 0 0-3.48 1.4M5.1 6.9a4.83 4.83 0 0 0-1.4 3.5c0 2.21 1.79 4 4 4h2a4 4 0 0 0 4-4c0-1.2-.5-2.3-1.4-3.5a4.83 4.83 0 0 0-3.5-1.4Z"/><path d="M12 12V4"/><path d="m14.8 14.8 4.2-4.2"/><path d="M19.07 19.07a4 4 0 0 0-5.66 0l-1.41 1.41a4 4 0 0 0 0 5.66l.05.05a4 4 0 0 0 5.66 0l1.36-1.36Z"/><path d="M9.2 14.8 5 19"/></svg>
