<?xml version="1.0" standalone="no"?>
<!DOCTYPE svg PUBLIC "-//W3C//DTD SVG 20010904//EN"
 "http://www.w3.org/TR/2001/REC-SVG-20010904/DTD/svg10.dtd">
<svg version="1.0" xmlns="http://www.w3.org/2000/svg"
 width="974.000000pt" height="1079.000000pt" viewBox="0 0 974.000000 1079.000000"
 preserveAspectRatio="xMidYMid meet">
<metadata>
Created by potrace 1.16, written by Peter Selinger 2001-2019
</metadata>
<g transform="translate(0.000000,1079.000000) scale(0.100000,-0.100000)"
fill="#000000" stroke="none">
<path d="M5423 8819 c-35 -5 -118 -25 -185 -45 -74 -22 -153 -38 -198 -40
-134 -8 -209 -40 -288 -124 -31 -33 -112 -144 -112 -153 0 -5 -115 -209 -231
-412 -35 -60 -69 -129 -77 -152 -23 -70 -1 -152 84 -307 12 -21 14 -34 6 -50
-15 -33 -62 -86 -77 -86 -7 0 -31 44 -54 98 -23 53 -71 144 -106 201 l-66 104
11 74 c30 218 -11 567 -78 666 -41 61 -72 80 -134 80 -121 2 -287 -129 -483
-380 l-52 -66 -184 -2 c-208 -2 -334 -23 -470 -77 l-77 -30 -144 95 c-205 136
-307 186 -400 193 -66 5 -76 4 -107 -17 -46 -32 -70 -82 -88 -186 -27 -152 -3
-405 53 -576 15 -47 15 -49 -20 -160 -59 -187 -70 -268 -68 -476 l1 -184 -45
-50 c-68 -76 -149 -204 -183 -287 -43 -110 -61 -211 -61 -352 0 -142 26 -270
83 -410 65 -158 75 -183 97 -248 12 -36 38 -117 57 -180 63 -212 213 -483 363
-656 19 -22 58 -67 85 -99 116 -135 341 -344 472 -439 189 -136 470 -289 661
-362 34 -13 77 -30 95 -38 67 -30 293 -98 406 -121 221 -45 534 -75 797 -75
171 0 255 7 500 45 93 14 126 20 249 45 235 49 644 220 896 376 97 60 227 151
269 188 14 12 34 28 46 36 80 57 237 210 352 344 48 56 92 106 97 112 14 14
124 175 153 222 37 61 95 173 125 242 15 36 34 79 42 97 8 17 15 36 15 43 0 6
16 60 35 119 20 60 46 152 60 204 13 53 31 110 40 126 25 49 85 221 101 291
19 78 21 297 4 391 -33 188 -101 282 -191 265 -39 -7 -47 -17 -84 -111 -41
-102 -87 -174 -158 -250 -64 -69 -87 -77 -87 -32 0 48 -50 320 -85 462 -58
240 -60 216 36 310 100 98 221 258 262 345 24 51 31 83 35 148 6 106 -18 186
-89 297 -28 44 -58 93 -67 109 -9 15 -44 65 -77 111 -33 45 -67 92 -75 105
-58 90 -147 198 -225 275 -101 101 -201 161 -315 190 -71 19 -75 20 -173 64
-38 17 -75 31 -82 31 -8 0 -17 4 -20 10 -9 14 -245 85 -350 105 -106 20 -427
29 -522 14z m392 -139 c139 -17 240 -38 360 -76 147 -47 157 -56 163 -132 5
-75 -10 -209 -43 -378 -75 -382 -79 -501 -24 -724 22 -90 84 -233 123 -284 12
-17 25 -36 27 -43 9 -28 137 -147 184 -171 44 -23 61 -26 145 -25 52 0 108 2
125 4 28 4 30 2 42 -51 42 -176 123 -629 123 -688 0 -31 -18 -62 -36 -62 -4 0
-21 -10 -38 -23 -33 -24 -205 -126 -310 -183 -103 -55 -361 -163 -515 -214
-291 -97 -548 -151 -917 -195 -247 -29 -290 -33 -382 -39 -113 -8 -114 -6 -82
108 58 208 86 265 238 479 l55 77 136 -6 c107 -5 155 -3 225 10 170 32 390
122 423 172 8 13 13 39 11 60 -5 61 -35 64 -142 14 -131 -61 -261 -90 -451
-99 -246 -12 -383 21 -501 121 -82 69 -152 178 -115 178 4 0 29 18 54 40 25
22 49 40 54 40 5 0 30 -20 56 -44 57 -52 165 -107 256 -131 207 -53 446 22
564 178 41 55 46 99 14 131 -34 34 -62 33 -95 -5 -135 -155 -175 -174 -372
-173 -114 1 -131 3 -184 27 -113 52 -175 143 -176 259 l0 66 69 50 c107 79
163 159 163 236 0 75 -69 121 -211 139 -224 28 -375 -46 -355 -174 9 -56 77
-155 137 -199 l47 -35 0 -85 c0 -142 -50 -220 -141 -220 -34 0 -47 6 -74 34
-18 19 -48 66 -68 103 -115 222 -83 394 124 669 119 157 134 191 149 334 38
381 141 614 326 745 126 89 277 152 426 179 90 17 293 19 413 6z m-1868 -190
c33 -69 44 -365 22 -571 l-11 -101 33 -47 c124 -172 187 -290 213 -392 22 -87
20 -114 -10 -249 -23 -101 -25 -128 -20 -223 l7 -108 -39 -73 c-82 -151 -258
-342 -374 -405 -105 -57 -198 -100 -259 -119 -69 -22 -223 -52 -267 -52 -50 0
-80 -52 -47 -80 18 -15 215 -20 305 -8 66 9 192 54 274 97 92 49 96 48 235
-74 161 -141 356 -370 412 -484 39 -80 79 -180 79 -198 0 -27 -312 -13 -710
32 -567 65 -1097 226 -1465 444 -105 63 -250 204 -284 276 -34 72 -46 215 -25
313 6 31 31 28 48 -6 38 -73 221 -211 346 -260 100 -39 220 -48 220 -16 0 13
-26 30 -155 99 -71 38 -179 121 -225 172 -94 104 -132 163 -165 255 -45 124
-49 150 -49 338 -1 205 7 261 60 411 19 53 34 104 34 112 0 9 -16 76 -36 149
-30 109 -37 155 -41 258 -2 69 -1 157 4 195 8 70 8 70 40 73 55 5 248 -101
436 -240 88 -65 122 -72 179 -39 53 31 175 68 286 86 100 17 256 16 392 -1 54
-7 69 5 154 121 16 22 37 48 45 57 9 9 48 52 86 95 39 43 87 92 108 108 21 17
43 35 50 41 23 21 72 43 87 41 8 -1 20 -13 27 -27z m3547 -2356 c-1 -147 -80
-376 -173 -500 -9 -12 -23 -32 -31 -44 -39 -58 -120 -164 -169 -222 -132 -154
-490 -480 -663 -604 -233 -166 -469 -308 -705 -425 -101 -49 -187 -98 -193
-109 -16 -30 -12 -76 9 -101 46 -57 178 -16 486 149 114 61 439 262 455 281 3
3 50 40 105 81 117 88 123 93 184 144 25 22 55 47 65 55 22 18 133 121 246
229 101 97 115 95 58 -6 -43 -78 -109 -186 -117 -192 -4 -3 -23 -27 -42 -55
-18 -27 -36 -52 -39 -55 -3 -3 -23 -27 -45 -55 -110 -138 -474 -475 -514 -475
-6 0 -11 -4 -11 -8 0 -27 -436 -269 -570 -317 -343 -121 -620 -181 -945 -205
-457 -33 -866 21 -1325 177 -144 49 -168 60 -386 175 -161 86 -266 152 -343
217 -49 41 -52 46 -35 58 17 13 37 11 79 -7 60 -25 410 -90 605 -112 144 -16
462 -16 555 1 240 43 478 118 536 168 10 8 15 22 11 35 -6 23 -19 23 -203 -6
-188 -29 -377 -39 -604 -32 -265 8 -368 18 -545 52 -226 44 -628 164 -743 221
-137 68 -301 267 -418 505 -25 52 -30 71 -22 79 9 9 25 2 67 -29 30 -23 58
-42 61 -42 4 0 37 -20 74 -44 151 -97 431 -225 602 -275 130 -37 199 -54 489
-117 186 -41 623 -83 870 -84 135 0 373 14 510 31 225 28 602 124 688 174 56
33 65 102 19 146 -19 18 -30 20 -77 16 -30 -3 -91 -20 -135 -37 -189 -75 -518
-127 -865 -136 -444 -12 -861 31 -1229 128 -145 37 -348 103 -416 133 -16 7
-67 30 -113 49 -46 20 -108 52 -138 71 -30 19 -56 35 -58 35 -3 0 -44 27 -93
60 -250 170 -434 392 -488 590 -20 71 -32 250 -17 250 5 0 25 -26 42 -57 41
-72 57 -94 127 -166 285 -293 860 -536 1530 -647 367 -61 425 -67 763 -82 562
-24 1271 50 1730 181 271 78 630 217 760 295 14 8 84 48 155 87 72 40 132 75
135 79 3 3 28 21 55 40 28 19 52 37 55 40 3 4 23 18 45 32 64 41 144 115 228
211 28 31 56 56 61 54 7 -2 11 -36 10 -83z"/>
<path d="M4837 7829 c-9 -5 -23 -22 -31 -37 -38 -74 -27 -155 24 -186 29 -17
33 -17 56 -1 57 37 73 151 28 204 -27 32 -47 37 -77 20z"/>
<path d="M5662 7744 c-48 -34 -66 -119 -42 -206 22 -76 101 -101 161 -51 72
61 80 183 17 251 -26 27 -101 31 -136 6z"/>
<path d="M3705 7405 c-33 -13 -70 -37 -82 -52 -29 -35 -30 -84 -3 -108 19 -17
21 -17 67 13 102 67 106 68 175 50 66 -18 89 -13 108 22 20 38 -91 100 -177
100 -15 0 -55 -12 -88 -25z"/>
<path d="M2770 7281 c-69 -22 -136 -75 -146 -116 -18 -71 24 -83 103 -30 68
45 122 49 213 15 56 -21 61 -21 85 -6 47 31 25 71 -65 117 -47 25 -144 35
-190 20z"/>
<path d="M3375 7038 c-102 -27 -124 -84 -58 -151 20 -21 49 -45 65 -53 25 -13
28 -20 28 -62 0 -83 -48 -122 -147 -122 -64 1 -124 19 -154 46 -16 14 -24 15
-44 6 -32 -15 -32 -42 0 -80 81 -96 260 -97 364 -2 22 20 40 28 50 24 90 -39
177 -38 247 3 57 32 111 114 98 148 -11 27 -51 17 -81 -19 -45 -55 -96 -79
-151 -73 -89 10 -107 78 -47 177 49 80 47 128 -6 155 -32 17 -105 18 -164 3z"/>
<path d="M6465 5245 c-38 -31 -72 -59 -75 -63 -27 -36 -511 -382 -535 -382 -3
0 -21 -11 -38 -24 -101 -75 -664 -377 -785 -421 -20 -7 -66 -26 -102 -43 -85
-40 -331 -132 -445 -167 -187 -57 -213 -64 -315 -86 -58 -11 -120 -27 -138
-35 -57 -24 -65 -98 -15 -131 21 -14 37 -15 133 -4 173 18 428 87 735 198 22
8 148 62 280 121 465 206 867 447 1235 741 180 143 234 194 250 231 25 59 -16
120 -80 120 -28 0 -50 -11 -105 -55z"/>
<path d="M1010 3214 c-41 -14 -60 -30 -70 -57 -6 -20 -10 -257 -10 -694 0
-732 -3 -700 62 -722 39 -14 138 -14 173 -1 15 6 36 20 46 33 18 20 19 39 18
232 l-2 210 179 6 c98 4 204 12 234 19 75 17 186 71 238 115 148 127 193 362
111 580 -34 91 -137 191 -244 234 -71 30 -94 34 -220 41 -157 9 -492 11 -515
4z m581 -258 c40 -17 100 -77 123 -124 11 -21 17 -59 17 -111 1 -88 -12 -124
-65 -179 -52 -56 -79 -62 -267 -62 l-169 0 0 238 c0 131 3 242 7 245 3 4 77 7
163 7 114 0 167 -4 191 -14z"/>
<path d="M4215 3186 c-16 -16 -25 -40 -30 -77 -3 -30 -5 -336 -3 -681 l3 -628
31 -30 c27 -28 39 -32 106 -37 73 -5 76 -5 109 25 l34 30 -3 349 c-2 351 5
563 18 563 7 0 82 -95 153 -195 33 -47 128 -195 157 -245 11 -19 38 -60 60
-90 22 -30 46 -66 53 -80 32 -58 162 -258 193 -297 28 -34 44 -44 88 -54 29
-6 81 -10 115 -7 51 4 67 9 89 31 l27 27 0 679 c0 808 13 734 -131 739 -97 3
-125 -6 -143 -45 -8 -16 -11 -167 -11 -479 0 -523 4 -506 -85 -374 -28 41 -81
119 -118 173 -37 54 -67 100 -67 102 0 3 -21 39 -47 80 -51 79 -65 102 -219
349 -64 104 -109 165 -129 177 -24 15 -50 19 -128 19 -90 0 -100 -2 -122 -24z"/>
<path d="M3440 3060 c-15 -15 -20 -34 -21 -77 -1 -32 -4 -83 -7 -113 l-7 -54
-59 -2 c-82 -3 -101 -23 -101 -109 0 -85 20 -108 105 -115 l60 -5 5 -285 c5
-318 10 -349 71 -437 69 -100 237 -157 387 -133 93 15 107 31 107 120 0 36 -4
70 -8 76 -15 23 -52 34 -112 34 -78 0 -124 19 -146 62 -16 29 -18 65 -18 298
l-1 265 117 5 c148 6 153 10 153 115 0 103 -4 105 -151 114 l-119 6 0 60 c-1
190 -5 195 -142 195 -80 0 -96 -3 -113 -20z"/>
<path d="M7880 3060 c-18 -18 -20 -33 -20 -130 l0 -110 -50 0 c-96 0 -140 -50
-126 -145 9 -59 35 -79 110 -85 l61 -5 6 -290 c5 -302 9 -326 56 -419 48 -92
166 -146 323 -146 100 0 150 12 167 39 22 35 27 124 10 158 l-16 31 -102 4
c-98 4 -102 5 -125 33 -13 17 -26 44 -29 60 -3 17 -5 144 -3 284 l3 254 106
-2 106 -2 27 31 c36 43 37 126 3 166 -23 26 -29 28 -135 32 l-112 5 0 99 c0
94 -9 134 -34 150 -6 4 -55 8 -108 8 -85 0 -101 -3 -118 -20z"/>
<path d="M2500 2811 c-131 -35 -247 -120 -312 -226 -59 -97 -93 -236 -85 -354
13 -216 128 -379 332 -470 136 -61 323 -59 470 4 17 7 35 14 40 16 64 24 135
94 135 133 0 32 -39 83 -75 101 -41 19 -62 14 -123 -27 -72 -50 -146 -70 -232
-65 -93 6 -138 24 -189 76 -42 43 -90 163 -78 195 6 14 43 16 364 16 197 0
363 4 369 8 53 35 43 210 -20 347 -92 199 -359 309 -596 246z m270 -206 c50
-32 93 -90 110 -149 22 -79 31 -76 -240 -76 -268 0 -263 -2 -242 68 15 48 56
111 94 141 69 56 203 63 278 16z"/>
<path d="M5987 2815 c-167 -42 -292 -161 -363 -345 -26 -67 -29 -87 -28 -190
0 -141 16 -199 84 -301 86 -129 161 -189 292 -234 112 -37 266 -39 368 -4 69
24 166 80 198 116 51 56 39 105 -36 155 -40 26 -61 22 -130 -22 -79 -52 -166
-74 -249 -66 -131 14 -198 68 -238 198 -30 94 -56 88 354 88 l360 0 20 26 c54
68 6 318 -76 402 -7 7 -16 19 -20 26 -16 28 -144 115 -200 136 -75 29 -249 37
-336 15z m253 -200 c19 -9 49 -31 67 -47 36 -35 76 -125 71 -160 l-3 -23 -247
-3 -248 -2 0 27 c0 29 38 116 62 143 32 36 69 63 105 76 48 18 147 13 193 -11z"/>
<path d="M7040 2809 c-41 -11 -76 -24 -78 -29 -2 -6 -9 -10 -16 -10 -8 0 -36
-22 -64 -50 -101 -99 -122 -253 -49 -361 35 -53 121 -105 232 -139 193 -61
214 -69 249 -85 72 -34 71 -136 -1 -185 -70 -48 -278 -29 -342 32 -13 11 -42
23 -65 25 -35 4 -45 1 -69 -23 -70 -70 -38 -146 87 -207 205 -101 500 -66 616
73 60 72 83 140 77 228 -6 79 -23 116 -79 168 -65 61 -166 107 -313 143 -147
35 -175 55 -175 124 0 81 52 117 167 117 69 0 128 -20 169 -59 53 -49 100 -53
144 -13 39 34 44 75 18 123 -69 124 -300 183 -508 128z"/>
</g>
</svg>
